<?xml version="1.0" encoding="UTF-8"?>
<svg version="1.1" xmlns="http://www.w3.org/2000/svg" width="298" height="300">
<path d="M0 0 C1.06661865 0.47808105 2.1332373 0.95616211 3.23217773 1.44873047 C4.37114502 1.99932129 5.5101123 2.54991211 6.68359375 3.1171875 C7.30218765 3.41561554 7.92078156 3.71404358 8.55812073 4.02151489 C9.85901127 4.6501264 11.15904412 5.28051568 12.45825195 5.91259766 C14.42633033 6.86956879 16.39747966 7.81996713 18.36914062 8.76953125 C24.36320095 11.67068572 30.24365503 14.65070421 36 18 C33.73056373 20.52644265 31.55104723 21.87504746 28.484375 23.30908203 C27.11780762 23.95588425 27.11780762 23.95588425 25.72363281 24.61575317 C24.74233398 25.07513275 23.76103516 25.53451233 22.75 26.0078125 C20.67637472 27.00373425 18.60347986 28.001178 16.53125 29 C13.26571471 30.5679285 9.9970328 32.12638569 6.71484375 33.65917969 C3.54582692 35.14358378 0.39742767 36.66576989 -2.75 38.1953125 C-3.73129883 38.64254669 -4.71259766 39.08978088 -5.72363281 39.55056763 C-6.63467773 40.00068207 -7.54572266 40.45079651 -8.484375 40.91455078 C-9.28584961 41.29410919 -10.08732422 41.6736676 -10.91308594 42.06472778 C-15.86669146 46.6583885 -16.6187543 55.13986557 -17.99291992 61.5456543 C-18.16892227 62.34687714 -18.34492462 63.14809998 -18.52626038 63.97360229 C-19.09938547 66.5894004 -19.6652416 69.20670362 -20.23046875 71.82421875 C-20.62948904 73.65791817 -21.02877011 75.49156086 -21.42829895 77.32514954 C-22.26110806 81.15298392 -23.09020072 84.98159983 -23.91674805 88.81079102 C-24.97499654 93.71155131 -26.04341344 98.61003055 -27.11471081 103.50795269 C-27.94010524 107.28770042 -28.75967371 111.06869343 -29.57753944 114.85007668 C-29.96916047 116.65695061 -30.36268445 118.46341322 -30.75816917 120.26944542 C-31.30985741 122.79255501 -31.85355945 125.31726008 -32.39526367 127.8425293 C-32.55886383 128.58292953 -32.72246399 129.32332977 -32.89102173 130.08616638 C-34.50905359 137.09241824 -34.50905359 137.09241824 -33.08886719 143.91186523 C-32.44933105 144.72699585 -32.44933105 144.72699585 -31.796875 145.55859375 C-31.31718262 146.18403076 -30.83749023 146.80946777 -30.34326172 147.45385742 C-29.81748535 148.10845947 -29.29170898 148.76306152 -28.75 149.4375 C-28.21004395 150.13270752 -27.67008789 150.82791504 -27.11376953 151.54418945 C-25.42498472 153.7091538 -23.71559694 155.85624203 -22 158 C-21.47696289 158.65806641 -20.95392578 159.31613281 -20.41503906 159.99414062 C-17.90781771 163.14854149 -15.38828312 166.29265484 -12.859375 169.4296875 C-9.82509447 173.2032954 -6.86983544 177.03251532 -3.92700195 180.87792969 C-0.32697014 185.58123148 3.30106307 190.26229359 6.9375 194.9375 C7.4742334 195.6281958 8.0109668 196.3188916 8.56396484 197.03051758 C9.67142914 198.45390892 10.79665466 199.86364456 11.93849182 201.25961304 C13.4956763 203.32959661 14.73356342 205.23805453 15.99806213 207.47053528 C18.86675456 212.19736983 21.86770434 216.8463446 27.24276543 218.82603264 C33.79959553 220.168636 40.46446313 219.96250791 47.125 219.859375 C49.28013244 219.8688222 51.43525027 219.88242316 53.59033203 219.89996338 C58.09357606 219.92053189 62.59291575 219.89086505 67.09570312 219.82519531 C72.84484511 219.74539701 78.58484189 219.79136782 84.33364868 219.87520981 C88.78006896 219.92600937 93.22434966 219.90961069 97.6708374 219.87342072 C99.78856514 219.86413748 101.90649256 219.87534681 104.02398682 219.90813446 C116.29739307 220.41545591 116.29739307 220.41545591 126.68534851 214.92315674 C129.58722415 211.52942975 131.77926808 207.86478563 134 204 C135.18582941 202.42050284 136.39328108 200.8563186 137.64453125 199.328125 C138.7008825 197.96903102 139.75687369 196.60965712 140.8125 195.25 C142.00650064 193.71353407 143.20051135 192.17707596 144.39453125 190.640625 C144.99088379 189.87298828 145.58723633 189.10535156 146.20166016 188.31445312 C149.13299363 184.54184366 152.06659173 180.77099625 155 177 C156.15756337 175.51172753 157.31511542 174.02344625 158.47265625 172.53515625 C163.23046875 166.41796875 167.98828125 160.30078125 172.74609375 154.18359375 C173.52593628 153.13582764 173.52593628 153.13582764 174.3215332 152.06689453 C176 150 176 150 178.09057617 148.13232422 C180.49293162 145.79401244 181.78919723 144.14659402 183 141 C183.08081215 134.63370919 181.05459128 128.35092442 179.4375 122.25 C178.81090008 119.72480955 178.19633991 117.19695164 177.58448792 114.66815186 C177.20081818 113.10155432 176.80624707 111.53757439 176.39927673 109.97686768 C175.439113 106.23970251 174.75684738 102.86569839 175 99 C171.33275871 100.74879764 167.66631316 102.49925751 164 104.25 C162.97003906 104.74113281 161.94007813 105.23226562 160.87890625 105.73828125 C155.22472927 108.43932121 149.59389479 111.17615888 144 114 C144.2165625 115.21236328 144.2165625 115.21236328 144.4375 116.44921875 C144.623125 117.51785156 144.80875 118.58648437 145 119.6875 C145.185625 120.74324219 145.37125 121.79898438 145.5625 122.88671875 C146.5595484 129.9817864 146.5595484 129.9817864 144.93701172 132.93432617 C144.43959473 133.54767822 143.94217773 134.16103027 143.4296875 134.79296875 C142.86999268 135.49647461 142.31029785 136.19998047 141.73364258 136.92480469 C141.12029053 137.67149414 140.50693848 138.41818359 139.875 139.1875 C138.58429531 140.80050916 137.29394057 142.4137984 136.00390625 144.02734375 C135.33891113 144.85089355 134.67391602 145.67444336 133.98876953 146.52294922 C130.88083682 150.39393931 127.84983439 154.32356578 124.8125 158.25 C123.65809526 159.73349576 122.5031548 161.2165748 121.34765625 162.69921875 C119.14164983 165.53095203 116.94183381 168.36733213 114.74609375 171.20703125 C113.74754709 172.49230503 112.74885716 173.77746751 111.75 175.0625 C111.2960083 175.65256836 110.8420166 176.24263672 110.37426758 176.85058594 C107.22709252 180.88645374 107.22709252 180.88645374 105 182 C103.08643888 182.10653208 101.16917036 182.14883574 99.25268555 182.16113281 C98.0477092 182.17074036 96.84273285 182.1803479 95.60124207 182.19024658 C93.63880302 182.1966214 93.63880302 182.1966214 91.63671875 182.203125 C90.28392027 182.20887745 88.9311218 182.21463518 87.57832336 182.22039795 C84.73946757 182.23090851 81.90064009 182.23675048 79.06176758 182.24023438 C75.43010363 182.24571261 71.79881585 182.26972551 68.16726971 182.29820633 C65.37137269 182.31686454 62.57556559 182.32204003 59.77961159 182.32357025 C57.79156274 182.32805764 55.80356209 182.34669097 53.81559753 182.36553955 C52.6011647 182.36253845 51.38673187 182.35953735 50.13549805 182.35644531 C48.53571358 182.36191376 48.53571358 182.36191376 46.90361023 182.36749268 C42.1888374 181.77077192 39.69178482 179.78402279 36.59765625 176.27734375 C35.74418126 175.17050654 34.89964701 174.05673771 34.0625 172.9375 C33.09387207 171.67308356 32.12511574 170.40876548 31.15625 169.14453125 C30.64578125 168.47244629 30.1353125 167.80036133 29.609375 167.10791016 C27.37671306 164.18363783 25.10584825 161.28992852 22.8359375 158.39453125 C21.05740132 156.11847503 19.29354564 153.83161375 17.53125 151.54296875 C15.20319423 148.52514257 12.82734531 145.55687224 10.40625 142.61328125 C9.29142707 141.22154606 8.17683344 139.82962715 7.0625 138.4375 C6.53599854 137.81955566 6.00949707 137.20161133 5.46704102 136.56494141 C2.73172655 133.09041579 1.96726502 131.59223509 2.22070312 127.00708008 C3.01308518 121.33027163 4.21569636 115.73878391 5.43359375 110.140625 C5.79059105 108.47951691 5.79059105 108.47951691 6.15480042 106.78485107 C6.65608793 104.45814163 7.15961955 102.13191465 7.6652832 99.80615234 C8.43783105 96.24847547 9.20081854 92.68884002 9.96289062 89.12890625 C10.45255438 86.86185584 10.94276967 84.59492448 11.43359375 82.328125 C11.6607457 81.26660217 11.88789764 80.20507935 12.12193298 79.11138916 C12.3387825 78.11975769 12.55563202 77.12812622 12.77905273 76.10644531 C12.96700912 75.23868469 13.15496552 74.37092407 13.34861755 73.47686768 C13.67105186 72.25081818 13.67105186 72.25081818 14 71 C14.31724533 69.72737808 14.31724533 69.72737808 14.64089966 68.42904663 C16.59608343 64.93465227 19.48749361 63.71339715 22.96655273 62.02880859 C23.69217218 61.66146229 24.41779163 61.29411598 25.16539955 60.91563797 C27.6017552 59.68660032 30.04870632 58.48033889 32.49609375 57.2734375 C34.24137075 56.39838492 35.98585445 55.52174859 37.729599 54.64364624 C41.49455309 52.7499999 45.26360697 50.8648481 49.03533936 48.98474121 C55.07800509 45.96768665 61.09774383 42.90667384 67.11376953 39.83691406 C76.54320868 35.02706002 85.98518684 30.24285536 95.43876076 25.48060989 C100.8562162 22.75087386 106.26934319 20.01316112 111.67407227 17.25830078 C117.02060931 14.53340046 122.37656195 11.82795086 127.73986626 9.1362114 C129.75639457 8.11999851 131.76946403 7.0968903 133.77885628 6.06663895 C136.5520051 4.64629543 139.33652839 3.25128518 142.12524414 1.86181641 C142.94007263 1.4372113 143.75490112 1.0126062 144.59442139 0.57513428 C150.18099927 -2.16229296 150.18099927 -2.16229296 154.35145569 -1.33587646 C155.22547531 -0.89503723 156.09949493 -0.454198 157 0 C158.0729834 0.49902832 159.1459668 0.99805664 160.25146484 1.51220703 C161.96390381 2.37628174 161.96390381 2.37628174 163.7109375 3.2578125 C164.32393707 3.56572723 164.93693665 3.87364197 165.56851196 4.19088745 C167.50593658 5.16515063 169.4404876 6.14496917 171.375 7.125 C172.69642788 7.7907353 174.01804076 8.45610353 175.33984375 9.12109375 C178.56204525 10.74315823 181.78169593 12.37021374 185 14 C185 14.66 185 15.32 185 16 C184.4330542 16.28085449 183.8661084 16.56170898 183.28198242 16.85107422 C180.5826412 18.19001699 177.8850851 19.53252286 175.1875 20.875 C174.29740234 21.31585938 173.40730469 21.75671875 172.49023438 22.2109375 C167.9737743 24.46135359 163.4760727 26.73652096 159.02314758 29.11012268 C147.32520533 35.3456196 135.48061562 41.23885207 123.56323242 47.04200935 C116.85936742 50.3130528 110.17109386 53.61592091 103.47979736 56.91257572 C97.62944227 59.79270524 91.77399013 62.6614822 85.90722656 65.50805664 C80.17936314 68.28802167 74.46659989 71.09699648 68.76300049 73.92638969 C66.59930865 74.99316093 64.43032495 76.04926969 62.25604248 77.09428596 C59.22909204 78.5509927 56.22291536 80.04410829 53.21875 81.54711914 C52.32431183 81.96658813 51.42987366 82.38605713 50.5083313 82.8182373 C45.99316133 85.12873726 43.63597363 86.7687154 41.96806335 91.67488098 C41.61293861 93.108942 41.28563667 94.55049792 41 96 C40.76643799 96.8760791 40.53287598 97.7521582 40.29223633 98.65478516 C39.79155699 100.97676859 39.29456779 103.29906982 38.8125 105.625 C38.63525391 106.43195313 38.45800781 107.23890625 38.27539062 108.0703125 C36.22284788 116.2726198 36.22284788 116.2726198 38.23901367 124.11572266 C39.97174748 126.49158851 41.79652728 128.7482123 43.6875 131 C44.94256753 132.54072142 46.19649176 134.08237494 47.44921875 135.625 C48.00955811 136.29789063 48.56989746 136.97078125 49.1472168 137.6640625 C51 140 51 140 52.06040955 141.79219055 C54.33894449 145.50192573 55.26260121 146.79943349 59.62182617 147.98510742 C61.01051703 148.0645195 62.40201234 148.10249275 63.79296875 148.10546875 C64.53903885 148.1240242 65.28510895 148.14257965 66.05378723 148.16169739 C67.62948814 148.18829232 69.20559555 148.19643585 70.78149414 148.18725586 C73.16935848 148.18749816 75.53871739 148.28853063 77.92382812 148.39648438 C86.71570907 148.64352191 86.71570907 148.64352191 94.1159668 144.48413086 C96.73653342 141.53852629 98.83405346 138.28719811 101 135 C102.15221777 133.7528813 103.33365908 132.53124334 104.55859375 131.35546875 C108.55519944 127.11805625 112.01566627 123.24795268 111.98632812 117.16552734 C111.17475027 111.08160582 109.56470179 105.25832623 107.63354492 99.44091797 C106.96479836 96.86437533 106.88792416 94.65019436 107 92 C123.85403223 82.94638364 140.97442294 74.4189797 158.08520508 65.86474609 C162.27797487 63.76841281 166.46792725 61.66651004 170.65726566 59.5633297 C173.90112997 57.93586271 177.14678583 56.31199518 180.39297295 54.68916702 C181.94102688 53.91455007 183.48843245 53.13863595 185.03517342 52.3614006 C187.17661096 51.28581527 189.32049127 50.21526538 191.46508789 49.14599609 C192.10130066 48.82507996 192.73751343 48.50416382 193.39300537 48.17352295 C197.77165663 46 197.77165663 46 200 46 C203.04630112 57.92722956 205.84555911 69.90047984 208.546875 81.91015625 C208.85580059 83.28169263 208.85580059 83.28169263 209.1709671 84.68093681 C210.25606786 89.49959099 211.33874467 94.31878228 212.41943359 99.13842773 C213.53155926 104.09583975 214.65252652 109.05121031 215.77537155 114.00620365 C216.64336261 117.84415095 217.50472338 121.68356445 218.36429596 125.52340508 C218.77484432 127.35193395 219.18789074 129.17990389 219.60353851 131.00728035 C220.18252075 133.55549574 220.75203091 136.10565746 221.31933594 138.65649414 C221.49071579 139.40100327 221.66209564 140.14551239 221.83866882 140.9125824 C222.81076111 145.33939683 223.31190891 149.43827697 223 154 C221.234375 156.74609375 221.234375 156.74609375 218.75 159.4375 C217.82165528 160.4783359 216.89736219 161.5227958 215.9765625 162.5703125 C215.24421387 163.39837402 215.24421387 163.39837402 214.49707031 164.24316406 C211.88108467 167.31306503 209.51502102 170.56570857 207.125 173.8125 C202.65958195 179.83829763 198.06251851 185.73382987 193.35546875 191.57226562 C189.81633 195.9661572 186.34913763 200.40588479 182.92041016 204.88671875 C179.38607953 209.50457695 175.82206368 214.09877582 172.25 218.6875 C171.66081787 219.44474365 171.07163574 220.2019873 170.46459961 220.98217773 C167.41528081 224.90037292 164.36326429 228.81644454 161.30859375 232.73046875 C160.10141935 234.27853421 158.89438594 235.82670964 157.6875 237.375 C156.81544922 238.49285889 156.81544922 238.49285889 155.92578125 239.63330078 C151.75296038 244.99580432 147.67723788 250.42160448 143.671875 255.91015625 C142 258 142 258 140 259 C138.26891203 259.1269732 136.53314397 259.1920982 134.79777527 259.22792053 C133.14320816 259.26466637 133.14320816 259.26466637 131.45521545 259.30215454 C130.23918137 259.32369598 129.02314728 259.34523743 127.77026367 259.36743164 C126.49362854 259.39327835 125.21699341 259.41912506 123.90167236 259.445755 C112.09767184 259.67715685 100.29189225 259.8073044 88.48615551 259.91112614 C80.55416549 259.98246026 72.62495533 260.08381175 64.69458008 260.26196289 C57.77071357 260.41749005 50.84878151 260.51571505 43.9231928 260.54608625 C40.26133937 260.56398595 36.60466487 260.60892242 32.94441795 260.72224617 C8.98560861 261.43322255 8.98560861 261.43322255 2.45108032 255.61276245 C-0.46069555 252.38425873 -2.70051194 248.93067989 -4.78067589 245.12397575 C-6.87063176 241.48342149 -9.49524197 238.24912201 -12.0625 234.9375 C-13.05347167 233.60877313 -14.04208418 232.27828044 -15.02734375 230.9453125 C-18.4606792 226.35318385 -22.04705652 221.88999084 -25.64526367 217.42675781 C-29.18422526 213.03324534 -32.65110992 208.59379169 -36.07958984 204.11328125 C-39.61392134 199.49542192 -43.17807138 194.90133031 -46.75 190.3125 C-47.33773193 189.55670654 -47.92546387 188.80091309 -48.53100586 188.0222168 C-51.60101453 184.07577621 -54.67700153 180.13417466 -57.76171875 176.19921875 C-60.69807539 172.45182056 -63.61343332 168.68894487 -66.515625 164.91503906 C-67.81489988 163.23880351 -69.13978481 161.58248282 -70.46875 159.9296875 C-71.1184375 159.08664063 -71.768125 158.24359375 -72.4375 157.375 C-72.97246094 156.70210937 -73.50742188 156.02921875 -74.05859375 155.3359375 C-76.62818332 148.95994347 -72.84967937 139.14751079 -71.45556641 132.66479492 C-71.19689285 131.44924927 -70.9382193 130.23370361 -70.67170715 128.98132324 C-69.96574136 125.66909836 -69.25661772 122.35758725 -68.54531527 119.04650664 C-68.1006338 116.9761449 -67.65672055 114.90561982 -67.21302414 112.83504677 C-65.82325256 106.35077757 -64.43060502 99.86713578 -63.03389895 93.38435668 C-61.42354344 85.90973585 -59.82289911 78.43312135 -58.23049605 70.95465583 C-56.99673878 65.16340022 -55.75438812 59.37403028 -54.50548494 53.5860222 C-53.7605138 50.13253512 -53.01923037 46.67835334 -52.28691483 43.22215843 C-51.47143014 39.37480077 -50.63816822 35.53141628 -49.80322266 31.68823242 C-49.44305305 29.97000023 -49.44305305 29.97000023 -49.0756073 28.21705627 C-48.84574631 27.1727243 -48.61588531 26.12839233 -48.37905884 25.05241394 C-48.18401575 24.14377688 -47.98897266 23.23513983 -47.78801918 22.29896832 C-46.43717778 18.35802162 -43.84509223 16.7375749 -40.26635742 14.88354492 C-39.52516159 14.49692184 -38.78396576 14.11029877 -38.02030945 13.71195984 C-37.22341202 13.30556778 -36.42651459 12.89917572 -35.60546875 12.48046875 C-34.78049393 12.05824539 -33.9555191 11.63602203 -33.10554504 11.20100403 C-31.36142163 10.31260298 -29.61549752 9.42772947 -27.86791992 8.54614258 C-25.19832299 7.19298592 -22.54388294 5.81276376 -19.88867188 4.43164062 C-18.19097271 3.57120083 -16.49243128 2.71242044 -14.79296875 1.85546875 C-14.00214401 1.43895554 -13.21131927 1.02244232 -12.39653015 0.5933075 C-7.53862378 -1.80675732 -5.09509031 -2.55058105 0 0 Z " fill="#EFB200" transform="translate(75,41)"/>
<path d="M0 0 C1.69624512 0.79192749 1.69624512 0.79192749 3.42675781 1.59985352 C4.92480957 2.35673462 4.92480957 2.35673462 6.453125 3.12890625 C7.566875 3.68900391 8.680625 4.24910156 9.828125 4.82617188 C10.95734375 5.39916016 12.0865625 5.97214844 13.25 6.5625 C14.3946875 7.13935547 15.539375 7.71621094 16.71875 8.31054688 C18.84371562 9.3816778 20.96784843 10.45446392 23.09082031 11.52954102 C26.0562308 13.02842213 29.02710146 14.51603459 32 16 C29.11412434 18.2780585 26.1924941 20.05246639 22.9296875 21.7421875 C21.95 22.25136719 20.9703125 22.76054687 19.9609375 23.28515625 C18.94257813 23.80980469 17.92421875 24.33445312 16.875 24.875 C15.38226563 25.65037109 15.38226563 25.65037109 13.859375 26.44140625 C11.87333867 27.47072273 9.88343531 28.49261376 7.88964844 29.50683594 C6.0007875 30.48286445 4.1277626 31.49034055 2.27441406 32.53222656 C1.42331055 32.99854492 0.57220703 33.46486328 -0.3046875 33.9453125 C-1.04444824 34.36570801 -1.78420898 34.78610352 -2.54638672 35.21923828 C-9.06622202 37.29390826 -14.88499749 33.89907964 -20.55859375 30.96484375 C-21.34774673 30.56672989 -22.13689972 30.16861603 -22.94996643 29.75843811 C-25.45069561 28.49416413 -27.94407608 27.21611103 -30.4375 25.9375 C-32.13950635 25.07394754 -33.84197597 24.21130753 -35.54492188 23.34960938 C-39.70204972 21.24359343 -43.85264744 19.12519717 -48 17 C-48 16.34 -48 15.68 -48 15 C-42.79489138 12.17417332 -37.56739902 9.39753876 -32.31396484 6.66259766 C-30.53235722 5.72666324 -28.75743638 4.7778795 -26.98974609 3.81591797 C-24.43957893 2.43104948 -21.86852037 1.09496345 -19.2890625 -0.234375 C-18.50947174 -0.67062195 -17.72988098 -1.1068689 -16.92666626 -1.55633545 C-10.24624662 -4.90252028 -6.39378781 -3.38129667 0 0 Z " fill="#EDB100" transform="translate(157,4)"/>
</svg>
